<svg enable-background="new 0 0 180 180" viewBox="0 0 180 180" xmlns="http://www.w3.org/2000/svg"><path d="m90 25.4c-35.7 0-64.6 28.9-64.6 64.6s28.9 64.6 64.6 64.6 64.6-28.9 64.6-64.6-28.9-64.6-64.6-64.6z" fill="#adebf6"/><path d="m102.8 56.8h-20c-1.3 0-2.3 1-2.3 2.3v1.5c0 1.3 1 2.3 2.3 2.3h20.1c1.3 0 2.3-1 2.3-2.3v-1.5c0-1.3-1.1-2.3-2.4-2.3z" fill="#cfdbe5"/><path d="m116.9 44.9h-29.2c-1.7 0-3.1 1.4-3.1 3.1s1.4 3.1 3.1 3.1h29.2c1.7 0 3.1-1.4 3.1-3.1-.1-1.7-1.4-3.1-3.1-3.1z" fill="#cfdbe5"/><path d="m80.7 44.9h-4.5c-1.7 0-3.1 1.4-3.1 3.1s1.4 3.1 3.1 3.1h4.5c1.7 0 3.1-1.4 3.1-3.1s-1.4-3.1-3.1-3.1z" fill="#cfdbe5"/><path d="m101.6 50.8h-14.8c1.5 0 2.7 1.2 2.7 2.7v.7c0 1.5-1.2 2.7-2.7 2.7h14.8c-1.5 0-2.7-1.2-2.7-2.7v-.7c0-1.4 1.2-2.7 2.7-2.7z" fill="#cfdbe5"/><path d="m116.9 122.5h-47.6c-1.5 0-2.8 1.3-2.8 2.8v.4c0 1.5 1.3 2.8 2.8 2.8h47.6c1.5 0 2.8-1.3 2.8-2.8v-.4c0-1.5-1.3-2.8-2.8-2.8z" fill="#cfdbe5"/><path d="m114.8 134.1h-53c-1.5 0-2.8 1.3-2.8 2.8v.4c0 1.5 1.3 2.8 2.8 2.8h53c1.5 0 2.8-1.3 2.8-2.8v-.4c0-1.5-1.3-2.8-2.8-2.8z" fill="#cfdbe5"/><path d="m57.6 109.2h-4.8c-1.5 0-2.8 1.3-2.8 2.8v.4c0 1.5 1.3 2.8 2.8 2.8h4.8c1.5 0 2.8-1.3 2.8-2.8v-.4c0-1.6-1.3-2.8-2.8-2.8z" fill="#cfdbe5"/><path d="m101.2 144h-14.2c-1.4 0-2.6 1.2-2.6 2.6v.1c0 1.4 1.2 2.6 2.6 2.6h14.2c1.4 0 2.6-1.2 2.6-2.6v-.1c0-1.4-1.2-2.6-2.6-2.6z" fill="#cfdbe5"/><path d="m60.7 122.5h-8.6c-1.5 0-2.8 1.3-2.8 2.8v.4c0 1.5 1.3 2.8 2.8 2.8h8.6c1.5 0 2.8-1.3 2.8-2.8v-.4c0-1.5-1.3-2.8-2.8-2.8z" fill="#cfdbe5"/><path d="m113.5 128.3h-43.5c1.5 0 2.6 1.2 2.6 2.6v.7c0 1.5-1.2 2.6-2.6 2.6h43.5c-1.5 0-2.6-1.2-2.6-2.6v-.6c-.1-1.5 1.1-2.7 2.6-2.7z" fill="#cfdbe5"/><path d="m100.7 140.1h-13.6c.9 0 1.7.8 1.7 1.7v.4c0 .9-.8 1.7-1.7 1.7h13.6c-.9 0-1.7-.8-1.7-1.7v-.4c0-.9.8-1.7 1.7-1.7z" fill="#cfdbe5"/><path d="m85.9 112.2h-16.4c-1.5 0-2.8 1.3-2.8 2.8v.4c0 1.5 1.3 2.8 2.8 2.8h16.4c1.5 0 2.8-1.3 2.8-2.8v-.4c-.1-1.6-1.3-2.8-2.8-2.8z" fill="#cfdbe5"/><path d="m85.5 118.1h-15.4c1.1 0 1.9.9 1.9 1.9v.5c0 1.1-.9 1.9-1.9 1.9h15.4c-1.1 0-1.9-.9-1.9-1.9v-.5c0-1 .9-1.9 1.9-1.9z" fill="#cfdbe5"/><path d="m102 129.5c0-3.1 0-7.5 0-7.5h-6-6v7.5c0 3.1-8.1 5.5-8.1 5.5h14.1 14.1s-8.1-2.4-8.1-5.5z" fill="#fff"/><path d="m90 129.3h12c0-3.1 0-7.3 0-7.3h-12z" fill="#45525b" opacity=".5"/><path d="m110.1 134.7h-28.3c-.7 0-1.2.5-1.2 1.2s.5 1.2 1.2 1.2h28.3c.7 0 1.2-.5 1.2-1.2 0-.6-.5-1.2-1.2-1.2z" fill="#192e2d"/><path d="m133.4 67.5h-74.9c-1.3 0-2.4 1.1-2.4 2.4v46.6h79.6v-46.6c.1-1.3-1-2.4-2.3-2.4z" fill="#192e2d"/><path d="m60 70.1h72.1v42.8h-72.1z" fill="#fff"/><path d="m56.2 123.2c0 1.3 1.1 2.4 2.4 2.4h74.9c1.3 0 2.4-1.1 2.4-2.4v-7.1h-79.7z" fill="#fff"/><path d="m96 118.7c-1.2 0-2.1 1-2.1 2.2s.9 2.2 2.1 2.2 2.1-1 2.1-2.2-1-2.2-2.1-2.2z" fill="#eae9e8"/><path d="m60 70.1h72.1v3.9h-72.1z" fill="#cfdbe5"/><path d="m60 110.2h72.1v2.8h-72.1z" fill="#cfdbe5"/><path d="m60 74h72.1v16.5h-72.1z" fill="#ff916e"/><path d="m101.6 75h21.2v10.8h-21.2z" fill="#fdfbf2"/><path d="m101.8 86.7h21v1h-21z" fill="#45525b"/><path d="m101.8 88.6h17.5v1h-17.5z" fill="#45525b"/><path d="m124 81.9 2-1.5-2-1.5z" fill="#45525b"/><path d="m70.6 75h21.2v10.8h-21.2z" fill="#fdfbf2"/><path d="m70.6 86.7h21v1h-21z" fill="#45525b"/><path d="m74.1 88.6h17.5v1h-17.5z" fill="#45525b"/><path d="m69.4 81.9v-3l-2 1.5z" fill="#45525b"/><path d="m67.4 91.5c-1.9 0-3.5 1.6-3.5 3.5s1.6 3.5 3.5 3.5 3.5-1.6 3.5-3.5-1.5-3.5-3.5-3.5z" fill="#cfdbe5"/><path d="m64.9 100.2h5.3v1.4h-5.3z" fill="#cfdbe5"/><path d="m64.9 102.3h5.3v1.4h-5.3z" fill="#cfdbe5"/><path d="m86.5 91.5c-1.9 0-3.5 1.6-3.5 3.5s1.6 3.5 3.5 3.5 3.5-1.6 3.5-3.5-1.6-3.5-3.5-3.5z" fill="#cfdbe5"/><path d="m83.9 100.2h5.3v1.4h-5.3z" fill="#cfdbe5"/><path d="m83.9 102.3h5.3v1.4h-5.3z" fill="#cfdbe5"/><path d="m105.5 91.5c-1.9 0-3.5 1.6-3.5 3.5s1.6 3.5 3.5 3.5 3.5-1.6 3.5-3.5c.1-1.9-1.5-3.5-3.5-3.5z" fill="#cfdbe5"/><path d="m102.9 100.2h5.3v1.4h-5.3z" fill="#cfdbe5"/><path d="m102.9 102.3h5.3v1.4h-5.3z" fill="#cfdbe5"/><path d="m124.6 91.5c-1.9 0-3.5 1.6-3.5 3.5s1.6 3.5 3.5 3.5 3.5-1.6 3.5-3.5-1.6-3.5-3.5-3.5z" fill="#cfdbe5"/><path d="m122 100.2h5.3v1.4h-5.3z" fill="#cfdbe5"/><path d="m122 102.3h5.3v1.4h-5.3z" fill="#cfdbe5"/><path d="m60 104.7h72.1v5.5h-72.1z" fill="#192e2d"/><path d="m65.8 105.6h18.5v.9h-18.5z" fill="#f2f2f2"/><path d="m65.8 107.1h18.5v.9h-18.5z" fill="#f2f2f2"/><path d="m65.8 108.5h18.5v.9h-18.5z" fill="#f2f2f2"/><path d="m87.3 105.6h18.5v.9h-18.5z" fill="#f2f2f2"/><path d="m87.3 107.1h18.5v.9h-18.5z" fill="#f2f2f2"/><path d="m87.3 108.5h18.5v.9h-18.5z" fill="#f2f2f2"/><path d="m108.8 105.6h18.5v.9h-18.5z" fill="#f2f2f2"/><path d="m108.8 107.1h18.5v.9h-18.5z" fill="#f2f2f2"/><path d="m108.8 108.5h18.5v.9h-18.5z" fill="#f2f2f2"/><path d="m70.1 49.8h-35.4c-1.4 0-2.6 1.2-2.6 2.6v46.6c0 1.4 1.2 2.6 2.6 2.6h35.4c1.4 0 2.6-1.2 2.6-2.6v-46.6c0-1.4-1.2-2.6-2.6-2.6z" fill="#45525b"/><path d="m52.4 98.8c-.6 0-1.1.5-1.1 1.1s.5 1.1 1.1 1.1 1.1-.5 1.1-1.1c.1-.6-.5-1.1-1.1-1.1z" fill="#fff"/><path d="m35.4 53.1h33.9v45.2h-33.9z" fill="#fff"/><path d="m35.4 53.1h33.9v4.1h-33.9z" fill="#cfdbe5"/><path d="m35.4 95.4h33.9v2.9h-33.9z" fill="#cfdbe5"/><path d="m35.4 57.2h33.9v17.4h-33.9z" fill="#ff916e"/><path d="m40 59.7h11.8v8.8h-11.8z" fill="#fdfbf2"/><path d="m53.4 59.7h11.8v8.8h-11.8z" fill="#fdfbf2"/><path d="m37 70.3h12.3v.9h-12.3z" fill="#45525b"/><path d="m37 72h15v.9h-15z" fill="#45525b"/><path d="m53.7 70.3h13v.9h-13z" fill="#45525b"/><path d="m53.7 72h9.8v.9h-9.8z" fill="#45525b"/><path d="m66.5 65.6 1.8-1.4-1.8-1.4z" fill="#45525b"/><path d="m38.5 65.6v-2.8l-1.8 1.4z" fill="#45525b"/><path d="m41.3 76.5c-1.8 0-3.2 1.4-3.2 3.2s1.4 3.2 3.2 3.2 3.2-1.4 3.2-3.2c0-1.7-1.5-3.2-3.2-3.2z" fill="#cfdbe5"/><path d="m48.8 76.5c-1.8 0-3.2 1.4-3.2 3.2s1.4 3.2 3.2 3.2 3.2-1.4 3.2-3.2c0-1.7-1.4-3.2-3.2-3.2z" fill="#cfdbe5"/><path d="m63.8 76.5c-1.8 0-3.2 1.4-3.2 3.2s1.4 3.2 3.2 3.2 3.2-1.4 3.2-3.2c0-1.7-1.4-3.2-3.2-3.2z" fill="#cfdbe5"/><path d="m56.3 76.5c-1.8 0-3.2 1.4-3.2 3.2s1.4 3.2 3.2 3.2 3.2-1.4 3.2-3.2c0-1.7-1.4-3.2-3.2-3.2z" fill="#cfdbe5"/><path d="m39 84.4h4.8v1.3h-4.8z" fill="#cfdbe5"/><path d="m39 86.4h4.8v1.3h-4.8z" fill="#cfdbe5"/><path d="m46.4 84.4h4.8v1.3h-4.8z" fill="#cfdbe5"/><path d="m46.4 86.4h4.8v1.3h-4.8z" fill="#cfdbe5"/><path d="m53.9 84.4h4.8v1.3h-4.8z" fill="#cfdbe5"/><path d="m53.9 86.4h4.8v1.3h-4.8z" fill="#cfdbe5"/><path d="m61.4 84.4h4.8v1.3h-4.8z" fill="#cfdbe5"/><path d="m61.4 86.4h4.8v1.3h-4.8z" fill="#cfdbe5"/><path d="m35.4 89.6h33.9v5.8h-33.9z" fill="#45525b"/><path d="m37.5 90.6h8.7v.9h-8.7z" fill="#f2f2f2"/><path d="m37.5 92.1h8.7v.9h-8.7z" fill="#f2f2f2"/><path d="m37.5 93.6h8.7v.9h-8.7z" fill="#f2f2f2"/><path d="m47.7 90.6h8.7v.9h-8.7z" fill="#f2f2f2"/><path d="m47.7 92.1h8.7v.9h-8.7z" fill="#f2f2f2"/><path d="m47.7 93.6h8.7v.9h-8.7z" fill="#f2f2f2"/><path d="m57.8 90.6h8.7v.9h-8.7z" fill="#f2f2f2"/><path d="m57.8 92.1h8.7v.9h-8.7z" fill="#f2f2f2"/><path d="m57.8 93.6h8.7v.9h-8.7z" fill="#f2f2f2"/><g fill="#45525b"><path d="m90.3 41.7h-11.9c-.2 0-.4.2-.4.4s.2.4.4.4h11.9c.2 0 .4-.2.4-.4s-.2-.4-.4-.4z"/><path d="m80.3 38.5h-1.2c-.2 0-.4.2-.4.4s.2.4.4.4h1.2c.2 0 .4-.2.4-.4s-.2-.4-.4-.4z"/><path d="m91.5 38.5h-4.5c-.2 0-.4.2-.4.4s.2.4.4.4h4.5c.2 0 .4-.2.4-.4s-.2-.4-.4-.4z"/><path d="m86.8 36.4h-9.9c-.2 0-.4.2-.4.4s.2.4.4.4h9.9c.2 0 .4-.2.4-.4s-.1-.4-.4-.4z"/><path d="m82.5 32.1h-2.3c-.2 0-.4.2-.4.4s.2.4.4.4h2.3c.2 0 .4-.2.4-.4-.1-.2-.2-.4-.4-.4z"/><path d="m87.1 32.1h-2.3c-.2 0-.4.2-.4.4s.2.4.4.4h2.3c.2 0 .4-.2.4-.4-.1-.2-.2-.4-.4-.4z"/><path d="m91.7 32.1h-2.3c-.2 0-.4.2-.4.4s.2.4.4.4h2.3c.2 0 .4-.2.4-.4s-.2-.4-.4-.4z"/><path d="m95 32.1h-1c-.2 0-.4.2-.4.4s.2.4.4.4h1c.2 0 .4-.2.4-.4-.1-.2-.2-.4-.4-.4z"/><path d="m96 36.4h-3.2c-.2 0-.4.2-.4.4s.2.4.4.4h3.2c.2 0 .4-.2.4-.4 0-.3-.2-.4-.4-.4z"/><path d="m94.5 35.1c-.2 0-.4.2-.4.4v2.7c0 .2.2.4.4.4s.4-.2.4-.4v-2.7c-.1-.3-.2-.4-.4-.4z"/><path d="m130.9 57.3h-10.6c-.2 0-.4.2-.4.4s.2.4.4.4h10.6c.2 0 .4-.2.4-.4s-.2-.4-.4-.4z"/><path d="m117.1 53.5h-3.4c-.2 0-.4.2-.4.4s.2.4.4.4h3.4c.2 0 .4-.2.4-.4s-.2-.4-.4-.4z"/><path d="m132.5 59.4h-17.1c-.2 0-.4.2-.4.4s.2.4.4.4h17.1c.2 0 .4-.2.4-.4s-.2-.4-.4-.4z"/><path d="m111.6 63.6h-2.3c-.2 0-.4.2-.4.4s.2.4.4.4h2.3c.2 0 .4-.2.4-.4 0-.3-.1-.4-.4-.4z"/><path d="m120.9 63.6h-2.3c-.2 0-.4.2-.4.4s.2.4.4.4h2.3c.2 0 .4-.2.4-.4-.1-.3-.2-.4-.4-.4z"/><path d="m116.2 63.6h-2.3c-.2 0-.4.2-.4.4s.2.4.4.4h2.3c.2 0 .4-.2.4-.4 0-.3-.1-.4-.4-.4z"/><path d="m125.5 63.6h-2.3c-.2 0-.4.2-.4.4s.2.4.4.4h2.3c.2 0 .4-.2.4-.4-.1-.3-.2-.4-.4-.4z"/><path d="m130.1 63.6h-2.3c-.2 0-.4.2-.4.4s.2.4.4.4h2.3c.2 0 .4-.2.4-.4 0-.3-.2-.4-.4-.4z"/><path d="m112.4 58.1h-2.8c-.2 0-.4.2-.4.4s.2.4.4.4h2.8c.2 0 .4-.2.4-.4s-.1-.4-.4-.4z"/><path d="m111 56.8c-.2 0-.4.2-.4.4v2.6c0 .2.2.4.4.4s.4-.2.4-.4v-2.6c-.1-.2-.2-.4-.4-.4z"/><path d="m46.1 118h-9.7c-.2 0-.4.2-.4.4s.2.4.4.4h9.7c.2 0 .4-.2.4-.4 0-.3-.2-.4-.4-.4z"/><path d="m37.9 114.6h-1c-.2 0-.4.2-.4.4s.2.4.4.4h1c.2 0 .4-.2.4-.4s-.2-.4-.4-.4z"/><path d="m47.1 114.6h-3.7c-.2 0-.4.2-.4.4s.2.4.4.4h3.7c.2 0 .4-.2.4-.4-.1-.2-.2-.4-.4-.4z"/><path d="m43.3 112.4h-8.1c-.2 0-.4.2-.4.4s.2.4.4.4h8.1c.2 0 .4-.2.4-.4s-.2-.4-.4-.4z"/><path d="m40.1 107.9h-2.3c-.2 0-.4.2-.4.4s.2.4.4.4h2.3c.2 0 .4-.2.4-.4 0-.3-.2-.4-.4-.4z"/><path d="m49.3 107.9h-2.3c-.2 0-.4.2-.4.4s.2.4.4.4h2.3c.2 0 .4-.2.4-.4 0-.3-.2-.4-.4-.4z"/><path d="m44.7 107.9h-2.3c-.2 0-.4.2-.4.4s.2.4.4.4h2.3c.2 0 .4-.2.4-.4 0-.3-.2-.4-.4-.4z"/><path d="m51 112.3h-3.1c-.2 0-.4.2-.4.4s.2.4.4.4h3.1c.2 0 .4-.2.4-.4s-.2-.4-.4-.4z"/><path d="m49.5 111c-.2 0-.4.2-.4.4v2.8c0 .2.2.4.4.4s.4-.2.4-.4v-2.8c0-.3-.2-.4-.4-.4z"/><path clip-rule="evenodd" d="m134.4 108.4h-11.9c-1.6 0-2.9 1.3-2.9 2.9v26.8c0 1.6 1.3 2.9 2.9 2.9h11.9c1.6 0 2.9-1.3 2.9-2.9v-26.8c-.1-1.6-1.4-2.9-2.9-2.9z" fill-rule="evenodd"/></g><path clip-rule="evenodd" d="m120.1 111.3h16.6v27.3h-16.6z" fill="#fefdfa" fill-rule="evenodd"/><path clip-rule="evenodd" d="m126.7 110.2h3.4v.3h-3.4z" fill="#192e2d" fill-rule="evenodd"/><path clip-rule="evenodd" d="m128.4 109.2c-.2 0-.3.1-.3.3s.1.3.3.3.3-.1.3-.3-.1-.3-.3-.3z" fill="#192e2d" fill-rule="evenodd"/><path clip-rule="evenodd" d="m128.4 139c-.4 0-.7.3-.7.7s.3.7.7.7.7-.3.7-.7-.3-.7-.7-.7z" fill="#192e2d" fill-rule="evenodd"/><path d="m120.1 111.3h16.6v2h-16.6z" fill="#cfdbe5"/><path d="m120.1 136.6h16.6v2h-16.6z" fill="#cfdbe5"/><path d="m120.1 113.3h16.6v10.2h-16.6z" fill="#ff916e"/><path d="m122.4 114.7h5.8v5.1h-5.8z" fill="#fdfbf2"/><path d="m128.9 114.7h5.8v5.1h-5.8z" fill="#fdfbf2"/><path d="m120.8 120.9h6v.5h-6z" fill="#45525b"/><path d="m120.8 121.9h7.4v.5h-7.4z" fill="#45525b"/><path d="m129 120.9h6.3v.5h-6.3z" fill="#45525b"/><path d="m129 121.9h4.8v.5h-4.8z" fill="#45525b"/><path d="m135.3 118.2.9-.8-.9-.8z" fill="#45525b"/><path d="m121.6 118.2v-1.6l-.9.8z" fill="#45525b"/><path d="m123 125.4c-.9 0-1.6.7-1.6 1.6s.7 1.6 1.6 1.6 1.6-.7 1.6-1.6c-.1-.9-.8-1.6-1.6-1.6z" fill="#cfdbe5"/><path d="m126.6 125.4c-.9 0-1.6.7-1.6 1.6s.7 1.6 1.6 1.6 1.6-.7 1.6-1.6-.7-1.6-1.6-1.6z" fill="#cfdbe5"/><path d="m134 125.4c-.9 0-1.6.7-1.6 1.6s.7 1.6 1.6 1.6 1.6-.7 1.6-1.6c-.1-.9-.8-1.6-1.6-1.6z" fill="#cfdbe5"/><path d="m130.3 125.4c-.9 0-1.6.7-1.6 1.6s.7 1.6 1.6 1.6 1.6-.7 1.6-1.6-.7-1.6-1.6-1.6z" fill="#cfdbe5"/><path d="m121.8 129.2h2.3v.6h-2.3z" fill="#cfdbe5"/><path d="m121.8 130.2h2.3v.6h-2.3z" fill="#cfdbe5"/><path d="m125.5 129.2h2.3v.6h-2.3z" fill="#cfdbe5"/><path d="m125.5 130.2h2.3v.6h-2.3z" fill="#cfdbe5"/><path d="m129.1 129.2h2.3v.6h-2.3z" fill="#cfdbe5"/><path d="m129.1 130.2h2.3v.6h-2.3z" fill="#cfdbe5"/><path d="m132.8 129.2h2.3v.6h-2.3z" fill="#cfdbe5"/><path d="m132.8 130.2h2.3v.6h-2.3z" fill="#cfdbe5"/><path d="m120.1 132.6h16.6v3.9h-16.6z" fill="#45525b"/><path d="m121.1 133.3h4.3v.6h-4.3z" fill="#f2f2f2"/><path d="m121.1 134.3h4.3v.6h-4.3z" fill="#f2f2f2"/><path d="m121.1 135.3h4.3v.6h-4.3z" fill="#f2f2f2"/><path d="m126.1 133.3h4.3v.6h-4.3z" fill="#f2f2f2"/><path d="m126.1 134.3h4.3v.6h-4.3z" fill="#f2f2f2"/><path d="m126.1 135.3h4.3v.6h-4.3z" fill="#f2f2f2"/><path d="m131 133.3h4.3v.6h-4.3z" fill="#f2f2f2"/><path d="m131 134.3h4.3v.6h-4.3z" fill="#f2f2f2"/><path d="m131 135.3h4.3v.6h-4.3z" fill="#f2f2f2"/></svg>